<svg width="252" height="257" viewBox="0 0 252 257" fill="none" xmlns="http://www.w3.org/2000/svg">
<path d="M175.966 241.262C160.273 248.118 133.274 251.284 133.274 251.284C133.274 251.284 110.817 251.665 96.9118 248.601C73.563 243.456 60.1384 237.085 42.0235 221.481C27.4369 208.917 16.425 193.245 11.8974 182.46C10.4682 178.936 10.3076 178.127 10.4961 174.282C10.6835 169.435 11.6402 167.279 14.7737 164.629C18.1191 161.74 21.4118 160.95 25.4153 161.997C28.8744 162.918 31.6716 166.108 36.8914 175.025C43.6843 186.571 49.7462 193.626 60.3865 202.257C72.8035 212.427 86.9076 218.917 106.09 222.719C116.016 224.687 127.041 225.248 131.92 224.786C148.567 223.199 162.067 219.455 172.627 213.365C187.358 204.926 200.61 192.96 209.236 180.367C211.017 177.751 216.547 173.069 216.797 173.081C216.797 173.081 226.017 168.88 231.209 175.29C236.402 181.699 234.093 187.946 234.093 187.946C232.228 195.363 204.192 228.929 175.966 241.262Z" fill="#12967F"/>
<path d="M127.731 203.432C127.681 208.932 128.481 211.032 131.431 213.132C133.331 214.532 133.881 214.682 137.481 214.682C147.881 214.682 165.331 208.232 178.381 199.582C183.531 196.182 195.131 185.132 198.731 180.182C203.031 174.232 206.581 168.782 208.381 165.182C221.331 139.382 220.781 108.782 206.931 84.1825C197.581 67.5825 185.881 55.4325 171.881 47.8325C163.131 43.0325 150.781 39.1325 139.881 37.6325C132.881 36.6825 116.231 36.8325 110.381 37.8825C89.9313 41.5325 72.2813 50.9825 58.0813 65.7825C48.6813 75.6825 42.0313 86.5825 38.6813 97.6825C32.4313 118.682 32.4313 135.532 38.7313 154.432C42.0313 164.432 44.9313 169.832 52.1313 179.432C61.2813 191.632 75.6813 202.482 82.6313 202.382C89.4313 202.282 95.6313 194.682 94.6313 187.782C94.0813 183.782 92.6813 182.132 84.3813 175.432C78.0813 170.332 76.2813 168.582 72.3813 163.682C69.0313 159.482 66.1313 154.482 64.0813 149.432C62.2813 144.932 59.8813 136.082 59.8813 133.832C59.8813 131.682 59.2813 120.682 58.5313 120.682C59.0813 120.682 59.4313 120.082 59.6313 118.832C60.2813 114.582 63.0313 104.682 64.5813 101.182C67.6313 94.1825 71.4313 88.9825 78.8313 81.6825C85.9313 74.6825 89.2313 72.3325 97.4813 68.4325C101.381 66.5825 109.081 64.1825 114.481 63.1325C116.231 62.7825 121.781 62.4825 126.881 62.4825C137.181 62.4325 140.081 62.8825 149.131 66.0325C154.181 67.7825 161.831 71.5325 165.731 74.2325C169.381 76.7825 176.431 83.7825 179.731 88.1825C185.081 95.3825 189.381 104.782 191.631 114.482C192.681 118.982 192.731 132.332 191.681 136.832C190.581 141.632 187.081 150.932 184.931 154.982C180.131 163.882 172.031 172.832 163.831 178.232C156.381 183.182 153.481 184.382 137.381 189.432C135.081 190.132 132.431 191.282 131.531 191.932C129.131 193.782 127.781 197.882 127.731 203.432Z" fill="#DE3B26"/>
<path d="M182.85 126.4C182.85 157.6 157.6 182.85 126.45 182.85C95.3 182.85 70 157.6 70 126.4C70 95.25 95.3 70 126.45 70C157.6 70 182.85 95.25 182.85 126.4ZM148.2 126.45C148.2 114.15 138.2 104.15 125.85 104.15C113.55 104.15 103.55 114.15 103.55 126.45C103.55 138.8 113.55 148.8 125.85 148.8C138.2 148.8 148.2 138.8 148.2 126.45Z" fill="#E48F16"/>
<path d="M0.733332 124.744C-0.0666678 123.944 -0.116666 123.294 0.133334 120.044C0.333334 117.944 0.583333 114.794 0.683333 112.994C1.03333 108.644 2.28333 100.494 3.28333 96.4938C5.98333 85.2438 12.5833 69.3938 18.6333 59.5938C24.4333 50.2938 28.8833 44.7438 37.9333 35.5438C41.9833 31.4438 43.5333 30.0938 47.1833 27.3938C47.4833 27.1938 48.6333 26.2438 49.7333 25.2938C50.8833 24.2938 51.9833 23.4938 52.2333 23.4938C52.4333 23.4938 53.0833 23.0938 53.6333 22.5938C55.0333 21.3938 61.1833 17.6438 66.0833 15.0438C68.2333 13.8938 70.3833 12.7438 70.8333 12.4938C77.4333 8.89381 94.7833 3.14381 101.683 2.29381C102.783 2.14381 105.283 1.79381 107.183 1.49381C119.633 -0.506192 132.783 -0.506192 147.683 1.54381C149.633 1.79381 152.283 2.14381 153.583 2.34381C154.883 2.49381 156.083 2.84381 156.233 3.04381C156.383 3.29381 157.233 3.49381 158.183 3.49381C159.133 3.49381 159.983 3.69381 160.133 3.89381C160.283 4.14381 161.683 4.59381 163.283 4.94381C167.083 5.79381 170.083 6.79381 172.533 8.04381C173.033 8.29381 173.733 8.49381 174.083 8.49381C174.433 8.49381 175.633 8.89381 176.733 9.44381C177.783 9.94381 180.733 11.2938 183.183 12.4438C185.683 13.5938 188.133 14.7938 188.683 15.0938C189.233 15.3938 190.133 15.8938 190.683 16.1938C191.233 16.4938 192.483 17.3438 193.483 18.0938C194.483 18.8938 195.433 19.4938 195.583 19.4938C196.033 19.4938 201.683 23.1938 202.583 24.0438C202.933 24.4438 204.033 25.2938 204.933 25.9938C207.983 28.2938 213.033 32.6938 216.333 35.9938C220.533 40.2438 228.433 49.5438 228.433 50.3938C228.433 50.6938 228.633 50.9938 228.883 50.9938C229.133 50.9938 230.083 52.2438 230.983 53.7938C231.933 55.3438 232.933 56.8438 233.183 57.1438C235.033 59.2938 240.933 70.6438 243.183 76.4938C243.683 77.7438 244.383 79.4438 244.733 80.3438C246.183 83.6438 248.683 92.7438 250.133 99.9938C251.983 109.294 252.583 123.344 251.183 124.494C250.433 125.094 240.883 125.344 239.983 124.794C239.783 124.644 239.083 124.444 238.383 124.344C235.133 123.744 232.533 122.794 230.633 121.494C227.733 119.444 226.633 116.244 224.683 103.394C223.733 97.3438 221.033 89.1438 218.133 83.5938C216.933 81.2438 215.933 79.0438 215.933 78.6938C215.933 78.2938 215.733 77.9938 215.533 77.9938C215.333 77.9938 214.633 77.0438 214.033 75.8938C212.483 72.9938 211.933 72.0938 210.033 69.4938C209.083 68.2438 208.033 66.4938 207.583 65.6438C207.183 64.7438 206.633 63.9938 206.433 63.9938C206.233 63.9938 204.733 62.3438 203.083 60.3938C198.533 54.8938 197.133 53.4938 191.683 49.1438C180.933 40.4938 167.883 33.3438 157.183 30.2438C155.533 29.7938 153.383 29.1438 152.433 28.8438C151.483 28.5438 150.233 28.2938 149.683 28.2438C149.133 28.1938 146.083 27.7438 142.933 27.2438C137.083 26.3438 118.783 25.8438 116.683 26.5438C116.133 26.6938 114.433 26.9938 112.933 27.1938C111.433 27.3438 108.883 27.6938 107.333 27.9938C105.733 28.2438 103.233 28.6938 101.833 28.9438C99.4333 29.3938 93.8333 30.9938 91.9333 31.8438C91.5333 31.9938 91.0833 32.1938 90.9333 32.2438C87.3833 33.4938 74.8333 39.7938 71.4333 42.0938C67.4333 44.7938 64.7833 46.6438 64.4333 46.9938C64.2833 47.1438 63.0833 48.0938 61.6833 49.0938C59.4333 50.7438 51.4333 58.6938 49.3333 61.3438C48.8833 61.8938 47.4333 63.8438 46.0333 65.5438C42.9833 69.4938 37.9333 77.4438 37.9333 78.3438C37.9333 78.6938 37.7333 78.9938 37.4333 78.9938C37.1833 78.9938 36.9333 79.2438 36.9333 79.4938C36.9333 79.7938 36.0333 81.8438 34.9833 84.1438C33.8833 86.3938 32.1833 90.9438 31.1833 94.2438C30.1833 97.5438 29.1333 100.694 28.9333 101.244C28.6833 101.794 27.8333 105.544 26.9833 109.594C25.3333 117.794 24.1833 120.144 20.6833 122.594C18.1333 124.344 15.4333 124.894 7.78333 125.294C2.23333 125.594 1.53333 125.544 0.733332 124.744Z" fill="#4FA0D8"/>
</svg>
