<svg width="1347" height="257" viewBox="0 0 1347 257" fill="none" xmlns="http://www.w3.org/2000/svg">
<path d="M358.24 101.62V120.7C352.24 117.1 344.74 115.3 335.74 115.3C332.02 115.3 329.08 116.14 326.92 117.82C324.88 119.38 323.86 121.42 323.86 123.94C323.86 124.9 323.98 125.8 324.22 126.64C324.58 127.48 325.12 128.32 325.84 129.16C326.68 129.88 327.46 130.54 328.18 131.14C328.9 131.74 329.92 132.4 331.24 133.12C332.56 133.72 333.7 134.26 334.66 134.74C335.62 135.22 336.94 135.82 338.62 136.54C340.3 137.26 341.62 137.86 342.58 138.34C348.94 141.46 353.98 144.94 357.7 148.78C361.42 152.62 363.28 157.6 363.28 163.72C363.28 172.24 360.22 178.9 354.1 183.7C347.98 188.5 339.82 190.9 329.62 190.9C318.34 190.9 309.22 189.04 302.26 185.32V165.52C310.3 170.92 319 173.62 328.36 173.62C332.32 173.62 335.38 172.9 337.54 171.46C339.82 169.9 340.96 167.8 340.96 165.16C340.96 163.6 340.6 162.22 339.88 161.02C339.16 159.7 337.78 158.44 335.74 157.24C333.7 156.04 332.08 155.2 330.88 154.72C329.8 154.12 327.58 153.1 324.22 151.66C323.86 151.54 323.56 151.42 323.32 151.3C323.2 151.18 322.96 151.06 322.6 150.94C322.24 150.82 321.94 150.7 321.7 150.58C308.38 144.58 301.72 135.94 301.72 124.66C301.72 116.26 304.9 109.66 311.26 104.86C317.62 100.06 325.6 97.66 335.2 97.66C344.44 97.66 352.12 98.98 358.24 101.62ZM427.136 150.76H415.976C410.336 150.76 406.016 151.96 403.016 154.36C400.016 156.64 398.516 159.58 398.516 163.18C398.516 170.86 402.956 174.7 411.836 174.7C416.636 174.7 420.356 173.32 422.996 170.56C425.756 167.68 427.136 163.96 427.136 159.4V150.76ZM382.856 123.4V103.42C389.696 99.22 399.536 97.12 412.376 97.12C437.096 97.12 449.456 108.64 449.456 131.68V190H428.036V179.02C423.836 186.82 415.916 190.72 404.276 190.72C395.636 190.72 388.736 188.2 383.576 183.16C378.536 178.12 376.016 171.76 376.016 164.08C376.016 155.44 379.256 148.66 385.736 143.74C392.216 138.82 401.576 136.36 413.816 136.36H427.136V130.78C427.136 125.74 425.816 121.9 423.176 119.26C420.536 116.62 416.036 115.3 409.676 115.3C399.956 115.3 391.016 118 382.856 123.4ZM472.647 190V62.74H494.247V190H472.647ZM573.405 136.9V134.2C573.165 128.32 571.545 123.64 568.545 120.16C565.665 116.56 561.405 114.76 555.765 114.76C550.605 114.76 546.105 116.68 542.265 120.52C538.545 124.24 536.145 129.7 535.065 136.9H573.405ZM588.165 166.24V184.96C581.805 188.92 572.625 190.9 560.625 190.9C546.105 190.9 534.645 186.58 526.245 177.94C517.845 169.3 513.645 158.14 513.645 144.46C513.645 129.94 517.605 118.54 525.525 110.26C533.445 101.98 543.345 97.84 555.225 97.84C567.105 97.84 576.525 101.44 583.485 108.64C590.445 115.84 593.925 126.34 593.925 140.14C593.925 143.5 593.505 147.82 592.665 153.1H535.425C536.985 159.7 540.225 164.74 545.145 168.22C550.185 171.7 556.425 173.44 563.865 173.44C573.465 173.44 581.565 171.04 588.165 166.24ZM668.318 101.62V120.7C662.318 117.1 654.818 115.3 645.818 115.3C642.098 115.3 639.158 116.14 636.998 117.82C634.958 119.38 633.938 121.42 633.938 123.94C633.938 124.9 634.058 125.8 634.298 126.64C634.658 127.48 635.198 128.32 635.918 129.16C636.758 129.88 637.538 130.54 638.258 131.14C638.978 131.74 639.998 132.4 641.318 133.12C642.638 133.72 643.778 134.26 644.738 134.74C645.698 135.22 647.018 135.82 648.698 136.54C650.378 137.26 651.698 137.86 652.658 138.34C659.018 141.46 664.058 144.94 667.778 148.78C671.498 152.62 673.358 157.6 673.358 163.72C673.358 172.24 670.298 178.9 664.178 183.7C658.058 188.5 649.898 190.9 639.698 190.9C628.418 190.9 619.298 189.04 612.338 185.32V165.52C620.378 170.92 629.078 173.62 638.438 173.62C642.398 173.62 645.458 172.9 647.618 171.46C649.898 169.9 651.038 167.8 651.038 165.16C651.038 163.6 650.678 162.22 649.958 161.02C649.238 159.7 647.858 158.44 645.818 157.24C643.778 156.04 642.158 155.2 640.958 154.72C639.878 154.12 637.658 153.1 634.298 151.66C633.938 151.54 633.638 151.42 633.398 151.3C633.278 151.18 633.038 151.06 632.678 150.94C632.318 150.82 632.018 150.7 631.778 150.58C618.458 144.58 611.798 135.94 611.798 124.66C611.798 116.26 614.978 109.66 621.338 104.86C627.698 100.06 635.678 97.66 645.278 97.66C654.518 97.66 662.198 98.98 668.318 101.62ZM716.875 114.94V161.38C716.875 165.22 717.895 168.16 719.935 170.2C721.975 172.12 724.795 173.08 728.395 173.08C732.955 173.08 737.155 171.82 740.995 169.3V187.84C736.795 189.88 731.395 190.9 724.795 190.9C705.115 190.9 695.275 180.94 695.275 161.02V114.94H681.595V98.74H695.275V76.78H716.875V98.74H739.555V114.94H716.875ZM805.418 150.76H794.258C788.618 150.76 784.298 151.96 781.298 154.36C778.298 156.64 776.798 159.58 776.798 163.18C776.798 170.86 781.238 174.7 790.118 174.7C794.918 174.7 798.638 173.32 801.278 170.56C804.038 167.68 805.418 163.96 805.418 159.4V150.76ZM761.138 123.4V103.42C767.978 99.22 777.818 97.12 790.658 97.12C815.378 97.12 827.738 108.64 827.738 131.68V190H806.318V179.02C802.118 186.82 794.198 190.72 782.558 190.72C773.918 190.72 767.018 188.2 761.858 183.16C756.818 178.12 754.298 171.76 754.298 164.08C754.298 155.44 757.538 148.66 764.018 143.74C770.498 138.82 779.858 136.36 792.098 136.36H805.418V130.78C805.418 125.74 804.098 121.9 801.458 119.26C798.818 116.62 794.318 115.3 787.958 115.3C778.238 115.3 769.298 118 761.138 123.4ZM871.628 98.74V114.94C875.828 103.66 883.508 98.02 894.668 98.02C897.188 98.02 899.228 98.2 900.788 98.56V119.44C898.028 118.24 894.968 117.64 891.608 117.64C885.728 117.64 880.928 120.04 877.208 124.84C873.488 129.64 871.628 135.64 871.628 142.84V190H849.848L850.028 98.74H871.628ZM951.645 169.48C957.525 169.48 962.445 167.2 966.405 162.64C970.365 157.96 972.345 151.9 972.345 144.46C972.345 134.74 970.425 127.6 966.585 123.04C962.745 118.48 957.885 116.2 952.005 116.2C945.765 116.2 940.845 118.66 937.245 123.58C933.645 128.38 931.845 134.92 931.845 143.2C931.845 151.72 933.705 158.26 937.425 162.82C941.145 167.26 945.885 169.48 951.645 169.48ZM972.345 98.74H993.945V181.72C993.945 196.12 989.745 206.92 981.345 214.12C973.065 221.44 962.505 225.1 949.665 225.1C937.665 225.1 927.165 222.94 918.165 218.62V196.66C926.325 202.42 936.105 205.3 947.505 205.3C964.065 205.3 972.345 197.38 972.345 181.54V173.62C966.825 182.62 958.185 187.12 946.425 187.12C936.225 187.12 927.465 183.4 920.145 175.96C912.945 168.4 909.345 157.48 909.345 143.2C909.345 130 912.765 119.14 919.605 110.62C926.565 101.98 935.685 97.66 946.965 97.66C958.365 97.66 966.825 102.4 972.345 111.88V98.74ZM1071.22 136.9V134.2C1070.98 128.32 1069.36 123.64 1066.36 120.16C1063.48 116.56 1059.22 114.76 1053.58 114.76C1048.42 114.76 1043.92 116.68 1040.08 120.52C1036.36 124.24 1033.96 129.7 1032.88 136.9H1071.22ZM1085.98 166.24V184.96C1079.62 188.92 1070.44 190.9 1058.44 190.9C1043.92 190.9 1032.46 186.58 1024.06 177.94C1015.66 169.3 1011.46 158.14 1011.46 144.46C1011.46 129.94 1015.42 118.54 1023.34 110.26C1031.26 101.98 1041.16 97.84 1053.04 97.84C1064.92 97.84 1074.34 101.44 1081.3 108.64C1088.26 115.84 1091.74 126.34 1091.74 140.14C1091.74 143.5 1091.32 147.82 1090.48 153.1H1033.24C1034.8 159.7 1038.04 164.74 1042.96 168.22C1048 171.7 1054.24 173.44 1061.68 173.44C1071.28 173.44 1079.38 171.04 1085.98 166.24ZM1137.87 114.94V161.38C1137.87 165.22 1138.89 168.16 1140.93 170.2C1142.97 172.12 1145.79 173.08 1149.39 173.08C1153.95 173.08 1158.15 171.82 1161.99 169.3V187.84C1157.79 189.88 1152.39 190.9 1145.79 190.9C1126.11 190.9 1116.27 180.94 1116.27 161.02V114.94H1102.59V98.74H1116.27V76.78H1137.87V98.74H1160.55V114.94H1137.87ZM1178.35 187.3C1175.59 184.54 1174.21 181.24 1174.21 177.4C1174.21 173.56 1175.59 170.32 1178.35 167.68C1181.11 164.92 1184.41 163.54 1188.25 163.54C1192.09 163.54 1195.33 164.92 1197.97 167.68C1200.73 170.32 1202.11 173.56 1202.11 177.4C1202.11 181.24 1200.73 184.54 1197.97 187.3C1195.33 190.06 1192.09 191.44 1188.25 191.44C1184.41 191.44 1181.11 190.06 1178.35 187.3ZM1266.49 150.76H1255.33C1249.69 150.76 1245.37 151.96 1242.37 154.36C1239.37 156.64 1237.87 159.58 1237.87 163.18C1237.87 170.86 1242.31 174.7 1251.19 174.7C1255.99 174.7 1259.71 173.32 1262.35 170.56C1265.11 167.68 1266.49 163.96 1266.49 159.4V150.76ZM1222.21 123.4V103.42C1229.05 99.22 1238.89 97.12 1251.73 97.12C1276.45 97.12 1288.81 108.64 1288.81 131.68V190H1267.39V179.02C1263.19 186.82 1255.27 190.72 1243.63 190.72C1234.99 190.72 1228.09 188.2 1222.93 183.16C1217.89 178.12 1215.37 171.76 1215.37 164.08C1215.37 155.44 1218.61 148.66 1225.09 143.74C1231.57 138.82 1240.93 136.36 1253.17 136.36H1266.49V130.78C1266.49 125.74 1265.17 121.9 1262.53 119.26C1259.89 116.62 1255.39 115.3 1249.03 115.3C1239.31 115.3 1230.37 118 1222.21 123.4ZM1312 190V98.74H1333.6V190H1312ZM1309.84 71.38C1309.84 67.78 1311.1 64.72 1313.62 62.2C1316.14 59.68 1319.2 58.42 1322.8 58.42C1326.4 58.42 1329.46 59.68 1331.98 62.2C1334.5 64.72 1335.76 67.78 1335.76 71.38C1335.76 75.1 1334.5 78.22 1331.98 80.74C1329.46 83.26 1326.4 84.52 1322.8 84.52C1319.2 84.52 1316.14 83.26 1313.62 80.74C1311.1 78.22 1309.84 75.1 1309.84 71.38Z" fill="white"/>
<path d="M175.966 241.262C160.273 248.118 133.274 251.284 133.274 251.284C133.274 251.284 110.817 251.665 96.9118 248.601C73.563 243.456 60.1384 237.085 42.0235 221.481C27.4369 208.917 16.425 193.245 11.8974 182.46C10.4682 178.936 10.3076 178.127 10.4961 174.282C10.6835 169.435 11.6402 167.279 14.7737 164.629C18.1191 161.74 21.4118 160.95 25.4153 161.997C28.8744 162.918 31.6716 166.108 36.8914 175.025C43.6843 186.571 49.7462 193.626 60.3865 202.257C72.8035 212.427 86.9076 218.917 106.09 222.719C116.016 224.687 127.041 225.248 131.92 224.786C148.567 223.199 162.067 219.455 172.627 213.365C187.358 204.926 200.61 192.96 209.236 180.367C211.017 177.751 216.547 173.069 216.797 173.081C216.797 173.081 226.017 168.88 231.209 175.29C236.402 181.699 234.093 187.946 234.093 187.946C232.228 195.363 204.192 228.929 175.966 241.262Z" fill="#12967F"/>
<path d="M127.731 203.432C127.681 208.932 128.481 211.032 131.431 213.132C133.331 214.532 133.881 214.682 137.481 214.682C147.881 214.682 165.331 208.232 178.381 199.582C183.531 196.182 195.131 185.132 198.731 180.182C203.031 174.232 206.581 168.782 208.381 165.182C221.331 139.382 220.781 108.782 206.931 84.1825C197.581 67.5825 185.881 55.4325 171.881 47.8325C163.131 43.0325 150.781 39.1325 139.881 37.6325C132.881 36.6825 116.231 36.8325 110.381 37.8825C89.9313 41.5325 72.2813 50.9825 58.0813 65.7825C48.6813 75.6825 42.0313 86.5825 38.6813 97.6825C32.4313 118.682 32.4313 135.532 38.7313 154.432C42.0313 164.432 44.9313 169.832 52.1313 179.432C61.2813 191.632 75.6813 202.482 82.6313 202.382C89.4313 202.282 95.6313 194.682 94.6313 187.782C94.0813 183.782 92.6813 182.132 84.3813 175.432C78.0813 170.332 76.2813 168.582 72.3813 163.682C69.0313 159.482 66.1313 154.482 64.0813 149.432C62.2813 144.932 59.8813 136.082 59.8813 133.832C59.8813 131.682 59.2813 120.682 58.5313 120.682C59.0813 120.682 59.4313 120.082 59.6313 118.832C60.2813 114.582 63.0313 104.682 64.5813 101.182C67.6313 94.1825 71.4313 88.9825 78.8313 81.6825C85.9313 74.6825 89.2313 72.3325 97.4813 68.4325C101.381 66.5825 109.081 64.1825 114.481 63.1325C116.231 62.7825 121.781 62.4825 126.881 62.4825C137.181 62.4325 140.081 62.8825 149.131 66.0325C154.181 67.7825 161.831 71.5325 165.731 74.2325C169.381 76.7825 176.431 83.7825 179.731 88.1825C185.081 95.3825 189.381 104.782 191.631 114.482C192.681 118.982 192.731 132.332 191.681 136.832C190.581 141.632 187.081 150.932 184.931 154.982C180.131 163.882 172.031 172.832 163.831 178.232C156.381 183.182 153.481 184.382 137.381 189.432C135.081 190.132 132.431 191.282 131.531 191.932C129.131 193.782 127.781 197.882 127.731 203.432Z" fill="#DE3B26"/>
<path d="M182.85 126.4C182.85 157.6 157.6 182.85 126.45 182.85C95.3 182.85 70 157.6 70 126.4C70 95.25 95.3 70 126.45 70C157.6 70 182.85 95.25 182.85 126.4ZM148.2 126.45C148.2 114.15 138.2 104.15 125.85 104.15C113.55 104.15 103.55 114.15 103.55 126.45C103.55 138.8 113.55 148.8 125.85 148.8C138.2 148.8 148.2 138.8 148.2 126.45Z" fill="#E48F16"/>
<path d="M0.733332 124.744C-0.0666678 123.944 -0.116666 123.294 0.133334 120.044C0.333334 117.944 0.583333 114.794 0.683333 112.994C1.03333 108.644 2.28333 100.494 3.28333 96.4938C5.98333 85.2438 12.5833 69.3938 18.6333 59.5938C24.4333 50.2938 28.8833 44.7438 37.9333 35.5438C41.9833 31.4438 43.5333 30.0938 47.1833 27.3938C47.4833 27.1938 48.6333 26.2438 49.7333 25.2938C50.8833 24.2938 51.9833 23.4938 52.2333 23.4938C52.4333 23.4938 53.0833 23.0938 53.6333 22.5938C55.0333 21.3938 61.1833 17.6438 66.0833 15.0438C68.2333 13.8938 70.3833 12.7438 70.8333 12.4938C77.4333 8.89381 94.7833 3.14381 101.683 2.29381C102.783 2.14381 105.283 1.79381 107.183 1.49381C119.633 -0.506192 132.783 -0.506192 147.683 1.54381C149.633 1.79381 152.283 2.14381 153.583 2.34381C154.883 2.49381 156.083 2.84381 156.233 3.04381C156.383 3.29381 157.233 3.49381 158.183 3.49381C159.133 3.49381 159.983 3.69381 160.133 3.89381C160.283 4.14381 161.683 4.59381 163.283 4.94381C167.083 5.79381 170.083 6.79381 172.533 8.04381C173.033 8.29381 173.733 8.49381 174.083 8.49381C174.433 8.49381 175.633 8.89381 176.733 9.44381C177.783 9.94381 180.733 11.2938 183.183 12.4438C185.683 13.5938 188.133 14.7938 188.683 15.0938C189.233 15.3938 190.133 15.8938 190.683 16.1938C191.233 16.4938 192.483 17.3438 193.483 18.0938C194.483 18.8938 195.433 19.4938 195.583 19.4938C196.033 19.4938 201.683 23.1938 202.583 24.0438C202.933 24.4438 204.033 25.2938 204.933 25.9938C207.983 28.2938 213.033 32.6938 216.333 35.9938C220.533 40.2438 228.433 49.5438 228.433 50.3938C228.433 50.6938 228.633 50.9938 228.883 50.9938C229.133 50.9938 230.083 52.2438 230.983 53.7938C231.933 55.3438 232.933 56.8438 233.183 57.1438C235.033 59.2938 240.933 70.6438 243.183 76.4938C243.683 77.7438 244.383 79.4438 244.733 80.3438C246.183 83.6438 248.683 92.7438 250.133 99.9938C251.983 109.294 252.583 123.344 251.183 124.494C250.433 125.094 240.883 125.344 239.983 124.794C239.783 124.644 239.083 124.444 238.383 124.344C235.133 123.744 232.533 122.794 230.633 121.494C227.733 119.444 226.633 116.244 224.683 103.394C223.733 97.3438 221.033 89.1438 218.133 83.5938C216.933 81.2438 215.933 79.0438 215.933 78.6938C215.933 78.2938 215.733 77.9938 215.533 77.9938C215.333 77.9938 214.633 77.0438 214.033 75.8938C212.483 72.9938 211.933 72.0938 210.033 69.4938C209.083 68.2438 208.033 66.4938 207.583 65.6438C207.183 64.7438 206.633 63.9938 206.433 63.9938C206.233 63.9938 204.733 62.3438 203.083 60.3938C198.533 54.8938 197.133 53.4938 191.683 49.1438C180.933 40.4938 167.883 33.3438 157.183 30.2438C155.533 29.7938 153.383 29.1438 152.433 28.8438C151.483 28.5438 150.233 28.2938 149.683 28.2438C149.133 28.1938 146.083 27.7438 142.933 27.2438C137.083 26.3438 118.783 25.8438 116.683 26.5438C116.133 26.6938 114.433 26.9938 112.933 27.1938C111.433 27.3438 108.883 27.6938 107.333 27.9938C105.733 28.2438 103.233 28.6938 101.833 28.9438C99.4333 29.3938 93.8333 30.9938 91.9333 31.8438C91.5333 31.9938 91.0833 32.1938 90.9333 32.2438C87.3833 33.4938 74.8333 39.7938 71.4333 42.0938C67.4333 44.7938 64.7833 46.6438 64.4333 46.9938C64.2833 47.1438 63.0833 48.0938 61.6833 49.0938C59.4333 50.7438 51.4333 58.6938 49.3333 61.3438C48.8833 61.8938 47.4333 63.8438 46.0333 65.5438C42.9833 69.4938 37.9333 77.4438 37.9333 78.3438C37.9333 78.6938 37.7333 78.9938 37.4333 78.9938C37.1833 78.9938 36.9333 79.2438 36.9333 79.4938C36.9333 79.7938 36.0333 81.8438 34.9833 84.1438C33.8833 86.3938 32.1833 90.9438 31.1833 94.2438C30.1833 97.5438 29.1333 100.694 28.9333 101.244C28.6833 101.794 27.8333 105.544 26.9833 109.594C25.3333 117.794 24.1833 120.144 20.6833 122.594C18.1333 124.344 15.4333 124.894 7.78333 125.294C2.23333 125.594 1.53333 125.544 0.733332 124.744Z" fill="#4FA0D8"/>
</svg>
